<svg width="178" height="22" viewBox="0 0 178 22" fill="none" xmlns="http://www.w3.org/2000/svg">
<path d="M17.9998 5.9L12.8665 11.3667L9.3665 7.6C7.43317 5.53334 5.13317 3.06667 4.2665 2.16667L2.5 0V10.5V21H4.5H6.33317V15.2667V9.83334L9.6665 13.1667L12.9998 16.5L16.3332 13.1667L19.5 10V15.5V21H21.5H23.5L23.3332 10.5C23.3332 4.9 23.3665 0.104934 23.3332 0.138268C23.2665 0.138268 20.8332 2.86667 17.9998 5.9Z" fill="#80753D"/>
<path d="M118.266 3.33334L115.333 6.33334V10.5333V14.7667L118.233 17.7L121.5 21H125.5H130L133.1 17.7L136.176 14.7667V10.5333V6.31379L133.066 3.26667L130 0H125.5H121.5L118.266 3.33334ZM129.433 4.4C132.5 6.2 132.833 6.76667 132.833 10.5333C132.833 14.2667 132.466 14.9 129.3 16.7333C126.1 18.6 125.666 18.6333 122.766 17.1333C121.366 16.4 119.9 15.4 119.466 14.9C118.733 14.0333 118.666 13.6333 118.666 10.5333C118.666 6.56667 118.866 6.16667 121.433 4.7C125.666 2.26667 125.766 2.26667 129.433 4.4Z" fill="#80753D"/>
<path d="M124.167 6.46667C120.933 7.9 120.433 12.1 123.233 14.1333C124.367 14.9667 126.833 15 128.067 14.2C130.8 12.4 130.5 8.13333 127.533 6.66667C125.9 5.9 125.533 5.86667 124.167 6.46667ZM126.8 9.53333C127.867 10.5667 127.033 12.1333 125.533 11.9333C124.333 11.8 123.833 10.7 124.533 9.7C125.133 8.86667 126.067 8.8 126.8 9.53333Z" fill="#80753D"/>
<path d="M45.5999 10.5667L40.5 21L43 21C44.2667 21.0667 44.5999 20.4667 46.1333 19.8C48.9999 18.5 52.3333 18.5 55.1999 19.8C56.5 20.6 57.2667 21.0667 58.5 21L61 21L55.6999 10.5667C53.0333 5.13335 50.7666 4.21383e-07 50.6666 4.21383e-07C50.5333 4.21383e-07 48.2666 5.13335 45.5999 10.5667ZM52.6999 11.5333C53.6999 13.6667 54.5333 15.5 54.5999 15.6333C54.6333 15.7333 52.8666 15.3748 50.6666 15.3748C48.1333 15.3748 46.6999 15.7 46.7999 15.5C47.4333 13.8333 50.4999 7.66667 50.6666 7.66667C50.7999 7.66667 51.6999 9.40001 52.6999 11.5333Z" fill="#80753D"/>
<path d="M161.394 10.5667L156.294 21L158.794 21C160.061 21.0667 160.394 20.4667 161.927 19.8C164.794 18.5 168.127 18.5 170.994 19.8C172.294 20.6 173.061 21.0667 174.294 21L176.794 21L171.494 10.5667C168.827 5.13334 166.561 -9.53674e-06 166.461 -9.53674e-06C166.327 -9.53674e-06 164.061 5.13334 161.394 10.5667ZM168.494 11.5333C169.494 13.6667 170.327 15.5 170.394 15.6333C170.427 15.7333 168.661 15.3748 166.461 15.3748C163.927 15.3748 162.494 15.7 162.594 15.5C163.227 13.8333 166.294 7.66666 166.461 7.66666C166.594 7.66666 167.494 9.4 168.494 11.5333Z" fill="#80753D"/>
<path d="M79.6665 2.5V4H82.8332H85.9998V12.3333V20.6667H87.8332H89.6665V12.3333V4H92.8332H95.9998V2.5V1H87.8332H79.6665V2.5Z" fill="#80753D"/>
</svg>
