<svg viewBox="0 0 16 16" fill="none" xmlns="http://www.w3.org/2000/svg">
<path d="M8 15C6.14348 15 4.36301 14.2625 3.05025 12.9497C1.7375 11.637 1 9.85652 1 8C1 6.14348 1.7375 4.36301 3.05025 3.05025C4.36301 1.7375 6.14348 1 8 1C9.85652 1 11.637 1.7375 12.9497 3.05025C14.2625 4.36301 15 6.14348 15 8C15 9.85652 14.2625 11.637 12.9497 12.9497C11.637 14.2625 9.85652 15 8 15ZM8 16C10.1217 16 12.1566 15.1571 13.6569 13.6569C15.1571 12.1566 16 10.1217 16 8C16 5.87827 15.1571 3.84344 13.6569 2.34315C12.1566 0.842855 10.1217 0 8 0C5.87827 0 3.84344 0.842855 2.34315 2.34315C0.842855 3.84344 0 5.87827 0 8C0 10.1217 0.842855 12.1566 2.34315 13.6569C3.84344 15.1571 5.87827 16 8 16V16Z" fill="#424551"/>
<path d="M11.315 10.0143C11.41 9.99194 11.5094 9.99784 11.601 10.0313C11.6926 10.0647 11.7724 10.1242 11.8307 10.2024C11.8889 10.2806 11.923 10.3741 11.9288 10.4715C11.9345 10.5689 11.9117 10.6658 11.863 10.7503C11.4682 11.4346 10.9 12.0029 10.2157 12.3979C9.53141 12.7929 8.75515 13.0007 7.96505 13.0003C7.17494 13.0007 6.39868 12.7929 5.71439 12.3979C5.0301 12.0029 4.46192 11.4346 4.06705 10.7503C4.01842 10.6658 3.99558 10.5689 4.00133 10.4715C4.00708 10.3741 4.04118 10.2806 4.09942 10.2024C4.15766 10.1242 4.2375 10.0647 4.32912 10.0313C4.42073 9.99784 4.52012 9.99194 4.61505 10.0143H4.62005L4.63705 10.0193L4.70405 10.0343L4.95605 10.0893C5.17105 10.1353 5.47105 10.1973 5.81305 10.2583C6.50605 10.3823 7.33505 10.5003 7.96505 10.5003C8.59505 10.5003 9.42505 10.3823 10.117 10.2583C10.4883 10.1915 10.858 10.1168 11.226 10.0343L11.293 10.0193L11.31 10.0153L11.315 10.0133V10.0143ZM4.75605 4.56629C5.51905 3.14229 8.77605 4.44629 5.70805 8.00029C1.21205 6.40429 3.35805 3.70229 4.75605 4.56629ZM11.244 4.56629C12.642 3.70229 14.788 6.40429 10.292 8.00029C7.22505 4.44629 10.482 3.14229 11.244 4.56629Z" fill="#424551"/>
</svg>
