<svg width="380" height="138" viewBox="0 0 380 138" fill="none" xmlns="http://www.w3.org/2000/svg">
<path d="M379.216 121.416C379.216 130.047 370.86 137.072 360.522 137.072H19.4613C9.1232 137.072 0.766602 130.047 0.766602 121.416L102.807 23.0963C112.475 13.5677 124.335 7.43183 134.635 7.43183L323.008 0.851562C333.346 0.851562 341.703 7.87622 341.703 16.5075L379.216 121.416Z" fill="#C2C2C2"/>
<path d="M345.704 98.7867C345.704 104.812 339.204 109.717 331.221 109.717H66.2985C58.3152 109.717 51.8252 104.812 51.8252 98.7867L124.172 30.4203C131.677 23.823 147.529 19.5415 155.512 19.5415L302.973 16.918C310.956 16.918 317.446 21.7976 317.446 27.8053L345.704 98.8038" fill="#3F5AA1"/>
<path d="M221.696 108.819C221.855 109.775 221.802 110.749 221.538 111.686C221.274 112.623 220.805 113.504 220.159 114.278C219.512 115.053 218.7 115.705 217.769 116.198C216.839 116.691 215.808 117.015 214.737 117.151C212.574 117.438 210.372 116.946 208.615 115.784C206.858 114.623 205.689 112.886 205.365 110.956L190.05 17.6439C189.888 16.6891 189.94 15.7152 190.202 14.7782C190.464 13.8413 190.931 12.9599 191.576 12.1847C192.221 11.4095 193.031 10.7558 193.961 10.2613C194.89 9.76679 195.919 9.44119 196.99 9.30325C199.152 9.01911 201.352 9.51161 203.109 10.6729C204.865 11.8341 206.035 13.5695 206.361 15.499L221.696 108.819Z" fill="#BBBABA"/>
<path d="M144.466 95.9491C146.256 66.8848 160.021 41.4012 179.318 19.1992L155.512 19.4812C147.529 19.4812 131.668 23.7627 124.172 30.36L51.8252 98.7264C51.8252 104.751 58.3152 109.657 66.2985 109.657H144.686C144.271 105.091 144.198 100.506 144.466 95.9319" fill="#5978BA"/>
</svg>
