<svg width="123" height="141" viewBox="0 0 123 141" fill="none" xmlns="http://www.w3.org/2000/svg">
<path d="M122.115 70.9645C122.115 109.639 94.8124 140.999 61.1128 140.999C27.5178 140.999 0.199219 109.611 0.199219 70.9645C0.203483 52.3974 6.62197 34.5919 18.0441 21.4613C29.4662 8.33067 44.9573 0.949297 61.1128 0.939492C69.12 0.929771 77.0503 2.73381 84.4506 6.24842C91.8508 9.76304 98.5757 14.9193 104.241 21.4226C109.906 27.9259 114.401 35.6486 117.468 44.1493C120.535 52.65 122.114 61.762 122.115 70.9645Z" fill="white"/>
<path d="M111.332 71.7967C111.332 87.0782 106.05 101.734 96.6483 112.539C87.2462 123.345 74.4941 129.416 61.1975 129.416C47.9009 129.416 35.1488 123.345 25.7467 112.539C16.3446 101.734 11.0625 87.0782 11.0625 71.7967C11.0625 56.5152 16.3446 41.8596 25.7467 31.054C35.1488 20.2483 47.9009 14.1777 61.1975 14.1777C74.4941 14.1777 87.2462 20.2483 96.6483 31.054C106.05 41.8596 111.332 56.5152 111.332 71.7967" fill="#243438"/>
<path d="M93.6615 70.9663C93.6573 80.8737 90.2309 90.3738 84.1353 97.3794C78.0396 104.385 69.7734 108.323 61.1528 108.328C52.5436 108.308 44.2931 104.363 38.213 97.3576C32.1329 90.3525 28.7203 80.8607 28.7246 70.9663C28.731 61.0842 32.1496 51.609 38.2297 44.6213C44.3098 37.6336 52.5543 33.7047 61.1528 33.6973C65.4169 33.69 69.6405 34.6484 73.5823 36.5176C77.5241 38.3868 81.1067 41.1303 84.1256 44.5913C87.1446 48.0523 89.5406 52.1629 91.1768 56.6885C92.813 61.214 93.6573 66.0656 93.6615 70.9663" fill="#969796"/>
<path d="M61.4727 73.3281H120.218" stroke="white" stroke-width="3" stroke-linecap="round"/>
</svg>
